<?xml version="1.0" standalone="no"?>
<!DOCTYPE svg PUBLIC "-//W3C//DTD SVG 20010904//EN"
 "http://www.w3.org/TR/2001/REC-SVG-20010904/DTD/svg10.dtd">
<svg version="1.0" xmlns="http://www.w3.org/2000/svg"
 width="2560.000000pt" height="2560.000000pt" viewBox="0 0 2560.000000 2560.000000"
 preserveAspectRatio="xMidYMid meet">
<metadata>
Created by potrace 1.14, written by Peter Selinger 2001-2017
</metadata>
<g transform="translate(0.000000,2560.000000) scale(0.100000,-0.100000)"
fill="#000000" stroke="none">
<path d="M12195 18169 c-1302 -84 -2516 -633 -3446 -1559 -800 -797 -1314
-1785 -1508 -2900 -88 -504 -100 -1063 -35 -1585 155 -1245 752 -2409 1674
-3263 924 -856 2082 -1354 3330 -1432 2444 -152 4675 1361 5449 3698 119 357
196 729 243 1167 17 162 18 848 0 1010 -73 684 -231 1248 -511 1830 -731 1515
-2147 2615 -3783 2940 -460 91 -955 124 -1413 94z"/>
</g>
</svg>
